<?xml version="1.0" encoding="UTF-8" standalone="no"?>
<svg width="870px" height="282px" viewBox="0 0 870 282" version="1.1" xmlns="http://www.w3.org/2000/svg" xmlns:xlink="http://www.w3.org/1999/xlink">
    <!-- Generator: Sketch 40.3 (33839) - http://www.bohemiancoding.com/sketch -->
    <title>Group</title>
    <desc>Created with Sketch.</desc>
    <defs>
        <radialGradient cx="52.7420163%" cy="50%" fx="52.7420163%" fy="50%" r="63.6362791%" id="radialGradient-1">
            <stop stop-color="#4611E9" stop-opacity="0.478119339" offset="0%"></stop>
            <stop stop-color="#13BCC4" stop-opacity="0.5" offset="98.1780134%"></stop>
            <stop stop-color="#9EAACD" stop-opacity="0.5" offset="100%"></stop>
        </radialGradient>
        <path d="M616.826825,28.5275446 C588.554701,11.4635069 536.072338,0 476,0 C414.48106,0 360.922046,12.0222598 333.173063,29.7699629 C315.105429,27.3342576 295.49442,26 275,26 C197.752648,26 133.055724,44.9555165 116.249107,70.4000276 C49.0109583,77.4890531 0,99.4754789 0,125.5 C0,145.857113 29.9888677,163.743392 75.2325548,173.961245 C73.7641623,177.063775 73,180.250407 73,183.5 C73,215.093734 145.231997,240.736153 234.618211,240.997977 C256.450668,263.679439 317.322421,280 389,280 C451.625799,280 506.002663,267.541235 533.299561,249.266555 C557.319932,254.184279 585.227823,257 615,257 C705.022414,257 778,231.256373 778,199.5 C778,197.336811 777.661377,195.201523 777.00181,193.10037 C830.912682,183.72144 868,164.138564 868,141.5 C868,122.23325 841.137611,105.179737 799.903882,94.7458136 C801.283143,91.735745 802,88.647404 802,85.5 C802,53.7436269 729.022414,28 639,28 C631.479102,28 624.077171,28.1796834 616.826825,28.5275446 Z" id="path-2"></path>
    </defs>
    <g id="Page-1" stroke="none" stroke-width="1" fill="none" fill-rule="evenodd">
        <g id="Group" transform="translate(1.000000, 1.000000)">
            <g id="Combined-Shape">
                <use fill="url(#radialGradient-1)" fill-rule="evenodd" style="mix-blend-mode: darken;" xlink:href="#path-2"></use>
                <use stroke="#979797" stroke-width="1" xlink:href="#path-2"></use>
            </g>
            <text id="WeatherMe" font-family="Helvetica" font-size="100" font-weight="normal" fill="#EFEEF3">
                <tspan x="176.110352" y="167">WeatherMe</tspan>
            </text>
        </g>
    </g>
</svg>